<svg width="1540" height="593" viewBox="0 0 1540 593" fill="none" xmlns="http://www.w3.org/2000/svg">
<g clip-path="url(#clip0_602_31)">
<path d="M1540 0H0V592H1540V0Z" fill="#EAEAEA"/>
<path d="M806.528 314.041C807.573 305.326 807.259 304.061 813.742 305.471L815.389 305.615C820.625 305.836 825.849 304.956 830.724 303.033C838.979 299.208 843.859 292.817 835.727 294.495C817.18 298.321 815.902 292.042 815.902 292.042C835.489 262.98 843.678 226.09 836.61 217.053C817.336 192.423 783.969 204.069 783.407 204.371L783.228 204.406C779.15 203.586 775.004 203.153 770.845 203.115C763.834 202.762 756.916 204.833 751.251 208.978C751.251 208.978 691.744 184.47 694.512 239.832C695.097 251.61 711.395 328.949 730.826 305.595C737.935 297.055 744.791 289.831 744.791 289.831C748.248 292.165 752.408 293.226 756.56 292.835L756.89 292.553C756.791 293.663 756.835 294.78 757.023 295.878C752.017 301.474 753.49 302.455 743.48 304.515C733.355 306.601 739.304 310.317 743.186 311.287C747.896 312.465 758.78 314.135 766.148 303.829L765.855 305.005C767.82 306.576 767.689 316.297 767.965 323.241C767.916 329.062 768.643 334.862 770.125 340.491C771.54 344.311 773.211 354.154 786.365 351.336C797.357 348.978 805.762 345.587 806.528 314.048" fill="black"/>
<path d="M782.084 358.193C777.687 358.338 773.41 356.749 770.175 353.769C767.459 350.968 765.506 347.518 764.502 343.748L764.146 342.695C762.488 338.221 761.928 331.782 761.596 323.487C761.547 322.19 761.506 320.891 761.472 319.588C761.445 318.595 761.41 317.348 761.36 316.038C759.264 317.039 757.038 317.742 754.748 318.13C750.379 318.818 745.915 318.588 741.64 317.453C738.31 316.758 735.307 314.971 733.107 312.376C731.32 314.137 729.083 315.374 726.64 315.95C724.198 316.526 721.644 316.42 719.258 315.644C714.126 313.933 709.533 309.124 705.214 300.94C701.581 293.703 698.621 286.148 696.372 278.37C692.462 265.909 689.708 253.114 688.146 240.148C687.284 222.903 691.923 210.566 701.94 203.498C717.742 192.337 741.681 198.902 750.41 201.883C756.636 198.256 763.767 196.476 770.968 196.753C774.95 196.802 778.922 197.168 782.845 197.847C789.407 195.891 796.225 194.933 803.071 195.004C819.163 195.196 832.501 201.468 841.635 213.141C848.152 221.47 844.93 238.958 842.428 248.645C838.603 262.958 832.793 276.666 825.167 289.368C828.288 289.321 831.396 288.95 834.441 288.263C842.8 286.536 845.242 291.015 845.907 293.024C848.565 301.073 837.011 307.154 833.409 308.826C827.602 311.181 821.357 312.261 815.097 311.993L814.827 311.975L813.208 311.833L813.047 313.183L812.893 314.504C812.481 330.488 810.197 340.611 805.498 347.298C800.574 354.308 793.729 356.276 787.7 357.567C785.856 357.976 783.973 358.188 782.084 358.2V358.193ZM769.84 300.018C773.596 303.022 773.924 308.677 774.218 319.247C774.255 320.565 774.289 321.813 774.335 322.98C774.477 326.509 774.81 334.777 776.103 338.269C776.286 338.762 776.449 339.264 776.621 339.794C778.064 344.213 778.788 346.428 785.026 345.092C790.264 343.97 792.956 342.963 795.061 339.964C798.125 335.607 799.838 326.83 800.152 313.887L806.523 314.043L800.196 313.284L800.382 311.704C800.989 306.499 801.425 302.733 804.906 300.238C806.156 299.442 807.557 298.912 809.021 298.68C810.485 298.449 811.981 298.521 813.416 298.892C811.524 297.55 810.187 295.564 809.655 293.306L809.123 290.689L810.616 288.474C819.408 275.292 825.982 260.76 830.079 245.455C833.95 230.466 832.769 222.506 831.588 221.002C815.964 201.037 788.869 209.279 786.04 210.224L785.56 210.483L783.162 210.942L781.932 210.687C778.25 209.957 774.507 209.573 770.753 209.541C765.176 209.201 759.653 210.802 755.122 214.072L752.214 216.276L748.839 214.884C741.631 211.937 720.453 206.011 709.28 213.925C703.089 218.319 700.254 226.928 700.882 239.511C702.414 251.427 704.986 263.185 708.569 274.652C715.004 295.734 720.852 302.735 723.294 303.547C723.719 303.692 724.826 302.832 725.925 301.511C733.08 292.904 739.884 285.733 740.17 285.431L743.86 281.548L748.32 284.511C750.048 285.677 752.054 286.365 754.134 286.504L764.774 277.43L763.233 293.159C763.185 293.736 763.214 294.317 763.32 294.886L763.779 297.867L761.773 300.112L761.543 300.371L767.389 303.07L769.84 300.006V300.018Z" fill="black"/>
<path d="M835.734 294.498C817.184 298.323 815.909 292.044 815.909 292.044C835.496 262.982 843.683 226.093 836.617 217.055C817.329 192.43 783.974 204.08 783.416 204.383L783.235 204.415C779.157 203.598 775.011 203.167 770.852 203.128C763.841 202.776 756.923 204.846 751.258 208.992C751.258 208.992 691.744 184.468 694.512 239.832C695.099 251.61 711.395 328.949 730.826 305.595C737.935 297.055 744.789 289.831 744.789 289.831C748.245 292.164 752.404 293.226 756.556 292.835L756.888 292.553C756.79 293.663 756.835 294.78 757.021 295.878C752.017 301.474 753.485 302.455 743.48 304.515C733.353 306.602 739.301 310.317 743.186 311.287C747.894 312.465 758.78 314.135 766.148 303.829L765.855 305.005C767.815 306.576 769.194 315.224 768.962 323.065C768.73 330.905 768.577 336.285 770.122 340.493C771.668 344.701 773.209 354.156 786.363 351.338C797.355 348.981 803.051 342.876 803.845 332.694C804.406 325.454 805.679 326.525 805.759 320.051L806.782 316.988C807.959 307.173 806.97 304.008 813.742 305.48L815.389 305.625C820.625 305.846 825.85 304.966 830.726 303.042C838.972 299.208 843.864 292.817 835.734 294.498Z" fill="#336791"/>
<path d="M782.749 354.264C771.783 354.264 768.302 345.581 766.887 342.029C764.807 336.826 764.364 316.629 764.823 300.063C764.831 299.784 764.894 299.509 765.008 299.254C765.122 298.999 765.285 298.769 765.488 298.577C765.691 298.385 765.929 298.235 766.19 298.136C766.451 298.036 766.729 297.989 767.008 297.997C767.288 298.004 767.563 298.067 767.817 298.181C768.072 298.295 768.302 298.459 768.494 298.661C768.686 298.864 768.836 299.103 768.936 299.364C769.035 299.625 769.082 299.903 769.075 300.182C768.54 319.287 769.304 336.599 770.838 340.449C773.241 346.455 776.885 351.711 787.191 349.505C796.974 347.407 800.639 343.696 802.269 334.239C803.524 326.981 805.998 306.33 806.301 302.255C806.359 301.706 806.628 301.2 807.052 300.846C807.477 300.492 808.022 300.317 808.573 300.358C809.124 300.399 809.638 300.653 810.005 301.066C810.372 301.48 810.563 302.02 810.539 302.572C810.222 306.812 807.757 327.423 806.454 334.961C804.528 346.134 799.547 351.202 788.079 353.66C786.329 354.048 784.543 354.25 782.752 354.264H782.749ZM723.288 311.848C722.33 311.849 721.378 311.694 720.469 311.389C713.347 309.013 706.561 297.4 700.303 276.906C696.49 264.78 693.796 252.33 692.256 239.712C691.469 224.017 695.514 212.911 704.272 206.705C721.598 194.427 750.747 206.12 751.972 206.623C752.238 206.723 752.481 206.875 752.687 207.07C752.893 207.266 753.058 207.501 753.172 207.761C753.286 208.022 753.346 208.302 753.349 208.586C753.353 208.87 753.3 209.152 753.192 209.415C753.085 209.679 752.926 209.917 752.725 210.118C752.523 210.319 752.284 210.477 752.021 210.583C751.757 210.69 751.475 210.742 751.191 210.738C750.907 210.734 750.626 210.672 750.366 210.558C750.084 210.443 722.134 199.245 706.717 210.179C699.227 215.491 695.79 225.354 696.496 239.501C698.032 251.765 700.667 263.867 704.369 275.661C709.96 293.965 716.316 305.518 721.816 307.351C722.678 307.64 725.304 308.516 729.062 304C736.128 295.499 742.62 288.714 742.684 288.636C743.076 288.239 743.609 288.012 744.167 288.004C744.725 287.997 745.263 288.209 745.666 288.595C746.069 288.98 746.304 289.509 746.321 290.067C746.337 290.625 746.134 291.166 745.755 291.576C745.691 291.642 739.297 298.325 732.332 306.711C731.314 308.196 729.971 309.43 728.404 310.319C726.838 311.208 725.09 311.728 723.292 311.841L723.288 311.848ZM815.776 293.938C815.391 293.938 815.012 293.833 814.681 293.635C814.35 293.436 814.08 293.151 813.899 292.811C813.718 292.47 813.633 292.086 813.653 291.701C813.674 291.316 813.799 290.943 814.015 290.624C833.815 261.243 840.764 225.746 834.813 218.142C827.321 208.57 816.74 203.568 803.368 203.281C796.907 203.149 790.468 204.078 784.309 206.033L783.985 206.164C783.488 206.342 782.942 206.328 782.454 206.127C781.966 205.925 781.57 205.549 781.344 205.072C781.117 204.595 781.076 204.05 781.228 203.544C781.38 203.039 781.715 202.607 782.167 202.334L782.74 202.105H782.713H782.742C789.217 199.976 796 198.934 802.815 199.023C817.613 199.179 829.836 204.887 838.161 215.534C842.101 220.579 842.11 232.167 838.186 247.355C833.844 263.6 826.873 279.024 817.547 293.016C817.352 293.305 817.089 293.542 816.781 293.706C816.473 293.869 816.13 293.955 815.781 293.954L815.776 293.938ZM816.788 307.539C813.959 307.704 811.133 307.167 808.562 305.975C807.924 305.64 807.381 305.149 806.984 304.547C806.588 303.946 806.35 303.253 806.294 302.535C805.785 293.591 810.718 292.041 813.233 291.33C812.882 290.8 812.382 290.184 811.857 289.535C809.785 287.104 808.091 284.374 806.835 281.437C806.594 280.852 805.833 279.488 804.952 277.91C800.194 269.354 790.273 251.568 796.644 242.454C799.595 238.239 805.466 236.579 814.118 237.506C811.573 229.75 799.442 205.49 770.689 205.017C766.819 204.79 762.945 205.376 759.315 206.736C755.685 208.096 752.38 210.201 749.612 212.915C737.676 224.971 738.109 246.782 738.114 247C738.117 247.556 737.902 248.091 737.515 248.491C737.127 248.891 736.599 249.122 736.043 249.137C735.487 249.151 734.947 248.947 734.54 248.568C734.132 248.189 733.89 247.665 733.864 247.11C733.837 246.142 733.392 223.26 746.592 209.923C749.758 206.793 753.544 204.361 757.707 202.784C761.87 201.207 766.318 200.52 770.762 200.766C777.817 200.823 784.775 202.413 791.154 205.426C797.533 208.439 803.181 212.803 807.707 218.215C815.004 226.7 818.583 236.082 818.877 239.207C818.949 239.512 818.961 239.829 818.91 240.138C818.859 240.448 818.748 240.744 818.581 241.01C818.415 241.276 818.198 241.507 817.942 241.688C817.686 241.87 817.397 241.998 817.09 242.067L816.325 242.085C807.84 240.725 802.384 241.668 800.132 244.888C795.284 251.813 804.668 268.643 808.677 275.83C809.699 277.665 810.438 278.988 810.775 279.807C811.88 282.37 813.368 284.75 815.187 286.868C816.371 288.12 817.272 289.612 817.829 291.243C818.003 291.548 820.48 295.21 835.175 292.176C838.858 291.417 841.066 292.066 841.74 294.107C843.068 298.125 835.618 302.808 831.492 304.725C826.821 306.614 821.826 307.569 816.788 307.537V307.539ZM810.534 302.184C810.993 302.657 813.332 303.466 818.161 303.26C822.118 303.148 826.025 302.343 829.703 300.879C832.288 299.747 834.655 298.173 836.7 296.229L836.033 296.35C826.63 298.29 819.98 298.031 816.281 295.582C816.031 295.417 815.791 295.239 815.561 295.048C815.221 295.178 814.874 295.291 814.522 295.385C812.417 295.974 810.241 296.586 810.532 302.184H810.534ZM749.839 314.056C747.376 314.041 744.925 313.723 742.54 313.109C739.941 312.46 735.559 310.502 735.625 307.289C735.699 303.682 740.944 302.599 742.92 302.193C750.052 300.726 750.518 300.129 752.747 297.306C753.396 296.481 754.205 295.453 755.306 294.222C755.941 293.407 756.746 292.738 757.664 292.263C758.582 291.788 759.592 291.518 760.624 291.47C761.701 291.505 762.76 291.757 763.736 292.213C764.947 292.782 766.019 293.609 766.875 294.638C767.732 295.666 768.352 296.87 768.692 298.164C769.055 299.274 769.158 300.452 768.994 301.609C768.83 302.765 768.402 303.868 767.745 304.833C765.759 307.736 763.083 310.099 759.957 311.711C756.831 313.323 753.353 314.132 749.837 314.065L749.839 314.056ZM740.207 307.475C741.222 308.183 742.358 308.697 743.56 308.99C745.608 309.517 747.713 309.792 749.828 309.809C752.668 309.88 755.48 309.234 758.005 307.932C760.53 306.629 762.686 304.712 764.275 302.356C764.546 301.905 764.715 301.4 764.77 300.877C764.826 300.353 764.765 299.824 764.594 299.327C764.421 298.651 764.109 298.018 763.68 297.469C763.251 296.919 762.712 296.464 762.099 296.132C761.634 295.9 761.13 295.758 760.613 295.713C760.383 295.713 759.666 295.713 758.462 297.056C757.446 298.192 756.716 299.12 756.07 299.937C753.295 303.461 752.022 304.656 743.762 306.358C742.528 306.562 741.33 306.938 740.2 307.475H740.207ZM756.551 297.671C756.044 297.67 755.554 297.488 755.169 297.158C754.784 296.827 754.53 296.37 754.453 295.869C754.399 295.516 754.364 295.161 754.347 294.804C751.6 294.731 748.895 294.112 746.388 292.986C743.882 291.859 741.623 290.247 739.744 288.241C737.258 285.621 735.402 282.469 734.317 279.023C733.232 275.578 732.947 271.931 733.484 268.359C734.282 262.073 734.442 255.723 733.961 249.405C733.904 248.621 733.87 247.835 733.857 247.048C733.857 246.376 733.873 244.592 739.836 241.569C743.277 239.79 747.002 238.626 750.843 238.129C758.542 237.336 763.614 240.762 765.133 247.782C769.231 266.735 765.456 275.119 762.702 281.24C762.188 282.387 761.702 283.455 761.326 284.499L760.984 285.416C759.528 289.314 758.269 292.692 758.656 295.213C758.741 295.77 758.602 296.338 758.269 296.792C757.936 297.246 757.436 297.55 756.879 297.637L756.554 297.66L756.551 297.671ZM738.121 247.633L738.205 249.151C738.705 255.749 738.533 262.382 737.692 268.946C737.246 271.881 737.475 274.88 738.362 277.714C739.249 280.547 740.77 283.141 742.81 285.299C744.336 286.936 746.178 288.246 748.225 289.149C750.272 290.053 752.482 290.531 754.719 290.555H754.811C755.407 288.308 756.137 286.099 756.996 283.939L757.338 283.022C757.776 281.843 758.29 280.706 758.831 279.499C761.484 273.606 764.793 266.267 760.982 248.683C760.813 247.203 760.185 245.814 759.187 244.709C758.188 243.605 756.869 242.84 755.414 242.523C749.247 241.161 740.049 245.798 738.132 247.633H738.121ZM750.949 246.731C750.843 247.481 752.325 249.483 754.258 249.756C755.011 249.852 755.775 249.704 756.438 249.335C757.101 248.967 757.629 248.396 757.946 247.706C758.049 246.954 756.57 246.126 754.634 245.858C752.699 245.589 751.064 245.977 750.96 246.729L750.949 246.731ZM754.703 250.497L754.159 250.458C752.858 250.228 751.697 249.503 750.919 248.435C750.485 247.934 750.246 247.293 750.245 246.63C750.38 245.649 751.575 245.064 753.442 245.064C753.874 245.066 754.305 245.096 754.733 245.156C755.664 245.271 756.567 245.551 757.4 245.984C758.613 246.672 758.702 247.417 758.647 247.818C758.348 248.619 757.808 249.307 757.101 249.788C756.395 250.27 755.558 250.521 754.703 250.508V250.497ZM751.653 246.857C751.891 247.416 752.261 247.908 752.732 248.291C753.202 248.674 753.759 248.937 754.354 249.057L754.701 249.082C755.208 249.069 755.704 248.931 756.144 248.679C756.584 248.427 756.955 248.07 757.223 247.639C756.477 246.977 755.524 246.595 754.526 246.562C754.164 246.509 753.799 246.482 753.432 246.481C752.819 246.424 752.202 246.555 751.664 246.855L751.653 246.857ZM809.741 245.199C809.844 245.952 808.365 247.951 806.432 248.227C805.678 248.322 804.915 248.174 804.251 247.806C803.587 247.437 803.059 246.866 802.742 246.176C802.638 245.426 804.118 244.596 806.053 244.328C807.989 244.06 809.647 244.447 809.752 245.195L809.741 245.199ZM805.987 248.609C805.217 248.62 804.462 248.398 803.82 247.973C803.178 247.547 802.68 246.938 802.391 246.225C802.239 245.099 804.092 244.241 806.005 243.977C806.415 243.918 806.829 243.889 807.243 243.888C808.892 243.888 809.995 244.372 810.094 245.151C810.069 245.531 809.97 245.902 809.801 246.243C809.632 246.584 809.397 246.888 809.11 247.137C808.418 247.893 807.494 248.399 806.484 248.575L805.989 248.607L805.987 248.609ZM807.241 244.596C806.857 244.597 806.474 244.624 806.094 244.677C804.173 244.943 803.031 245.715 803.083 246.128C803.359 246.659 803.774 247.104 804.284 247.416C804.794 247.729 805.38 247.896 805.977 247.901L806.372 247.873C807.223 247.718 808 247.288 808.583 246.649C808.999 246.284 809.279 245.79 809.378 245.245C809.344 244.986 808.635 244.596 807.234 244.596H807.241ZM812.515 288.347C812.131 288.346 811.753 288.242 811.423 288.044C811.093 287.846 810.823 287.562 810.642 287.222C810.461 286.883 810.375 286.5 810.394 286.116C810.413 285.732 810.536 285.36 810.75 285.04C815.274 278.279 814.446 271.386 813.646 264.719C813.23 261.873 813.028 258.999 813.043 256.122C813.152 253.572 813.425 251.031 813.859 248.515C814.382 245.746 814.602 242.928 814.515 240.111C814.495 239.554 814.695 239.011 815.07 238.6C815.446 238.189 815.969 237.942 816.525 237.912C817.081 237.882 817.627 238.071 818.045 238.439C818.463 238.808 818.72 239.326 818.76 239.881C818.865 242.991 818.63 246.103 818.061 249.162C817.654 251.509 817.397 253.878 817.29 256.257C817.284 258.919 817.477 261.577 817.866 264.21C818.719 271.301 819.684 279.346 814.281 287.404C814.087 287.695 813.824 287.933 813.516 288.098C813.207 288.263 812.863 288.349 812.513 288.349L812.515 288.347Z" fill="white"/>
<path d="M669 358.88C671.374 358.495 673.777 358.307 676.182 358.32C679.095 358.099 681.988 358.956 684.31 360.728C685.149 361.494 685.81 362.433 686.248 363.481C686.686 364.528 686.89 365.659 686.846 366.794C686.902 367.923 686.732 369.051 686.348 370.114C685.964 371.177 685.372 372.153 684.608 372.986C683.422 374.085 682.026 374.934 680.503 375.481C678.981 376.028 677.364 376.262 675.749 376.169C674.739 376.201 673.73 376.114 672.74 375.91V387.522H669V358.88ZM672.743 372.855C673.758 373.083 674.798 373.184 675.838 373.155C680.352 373.155 683.106 370.963 683.106 366.964C683.106 363.136 680.397 361.288 676.267 361.288C675.084 361.255 673.901 361.355 672.74 361.588V372.855H672.743ZM709.51 376.939C709.634 378.364 709.456 379.798 708.988 381.149C708.521 382.5 707.773 383.737 706.795 384.78C705.817 385.823 704.631 386.648 703.312 387.202C701.994 387.755 700.574 388.025 699.145 387.993C697.767 388.008 696.401 387.736 695.135 387.194C693.868 386.652 692.729 385.851 691.79 384.842C690.851 383.834 690.133 382.641 689.681 381.34C689.23 380.038 689.056 378.656 689.169 377.283C689.169 370.316 693.728 366.232 699.489 366.232C705.467 366.241 709.51 370.575 709.51 376.939ZM692.999 377.155C692.999 381.714 695.622 385.154 699.319 385.154C702.931 385.154 705.639 381.757 705.639 377.07C705.639 373.543 703.878 369.071 699.404 369.071C694.93 369.071 692.999 373.199 692.999 377.155ZM713.766 383.649C715.265 384.586 716.987 385.106 718.754 385.154C721.506 385.154 722.797 383.778 722.797 382.058C722.797 380.251 721.724 379.262 718.926 378.23C715.186 376.898 713.422 374.834 713.422 372.339C713.422 368.984 716.131 366.232 720.605 366.232C722.394 366.215 724.157 366.66 725.723 367.523L724.776 370.275C723.497 369.487 722.023 369.07 720.52 369.071C718.284 369.071 717.036 370.362 717.036 371.91C717.036 373.63 718.286 374.405 720.995 375.437C724.606 376.813 726.455 378.62 726.455 381.716C726.455 385.371 723.616 387.951 718.672 387.951C716.633 387.988 714.619 387.499 712.824 386.532L713.766 383.649ZM735.871 360.717V366.7H741.287V369.58H735.871V380.803C735.871 383.383 736.6 384.846 738.71 384.846C739.449 384.856 740.186 384.769 740.902 384.587L741.074 387.426C739.998 387.803 738.861 387.978 737.721 387.942C736.966 387.987 736.209 387.869 735.504 387.594C734.799 387.319 734.161 386.895 733.635 386.351C732.485 384.792 731.962 382.858 732.172 380.932V369.58H728.948V366.7H732.172V361.712L735.871 360.724V360.717ZM763.22 366.7C763.133 368.204 763.048 369.883 763.048 372.419V384.502C763.048 389.275 762.101 392.201 760.081 394.008C757.957 395.753 755.258 396.643 752.513 396.503C750.092 396.564 747.699 395.97 745.587 394.783L746.534 391.903C748.382 392.996 750.494 393.561 752.641 393.538C756.512 393.538 759.349 391.517 759.349 386.27V383.947H759.264C758.567 385.062 757.587 385.972 756.423 386.584C755.26 387.196 753.955 387.488 752.641 387.431C747.481 387.431 743.782 383.044 743.782 377.281C743.782 370.229 748.383 366.23 753.157 366.23C754.471 366.152 755.78 366.451 756.93 367.09C758.08 367.73 759.024 368.685 759.652 369.842H759.732L759.904 366.702H763.215L763.22 366.7ZM759.308 374.914C759.329 374.333 759.256 373.752 759.092 373.194C758.773 372.039 758.082 371.021 757.126 370.298C756.17 369.575 755.002 369.187 753.804 369.195C750.19 369.195 747.612 372.247 747.612 377.065C747.612 381.15 749.676 384.548 753.76 384.548C754.932 384.542 756.072 384.164 757.015 383.468C757.958 382.772 758.656 381.795 759.007 380.677C759.213 380.024 759.315 379.342 759.31 378.657V374.917L759.308 374.914ZM769.068 373.194C769.068 370.743 769.024 368.635 768.896 366.7H772.207L772.336 370.784H772.508C772.863 369.513 773.612 368.386 774.647 367.567C775.683 366.748 776.951 366.278 778.271 366.225C778.632 366.22 778.993 366.263 779.344 366.354V369.922C778.92 369.83 778.488 369.787 778.055 369.793C776.762 369.845 775.533 370.368 774.598 371.263C773.663 372.158 773.088 373.363 772.98 374.653C772.874 375.235 772.816 375.825 772.808 376.416V387.511H769.065V373.192L769.068 373.194ZM784.809 377.795C784.725 378.757 784.852 379.725 785.18 380.634C785.508 381.542 786.029 382.368 786.708 383.055C787.386 383.742 788.206 384.274 789.111 384.613C790.015 384.952 790.982 385.09 791.945 385.018C793.921 385.08 795.887 384.713 797.708 383.943L798.352 386.651C796.161 387.564 793.802 388.004 791.429 387.942C790.04 388.029 788.649 387.816 787.35 387.316C786.052 386.816 784.876 386.041 783.904 385.045C782.933 384.049 782.187 382.854 781.72 381.544C781.252 380.233 781.073 378.837 781.194 377.451C781.194 371.172 784.893 366.225 790.957 366.225C797.752 366.225 799.556 372.201 799.556 376.029C799.55 376.619 799.507 377.208 799.428 377.792H784.806L784.809 377.795ZM795.903 375.086C796.011 374.329 795.957 373.558 795.743 372.824C795.53 372.09 795.163 371.41 794.667 370.828C794.171 370.247 793.557 369.777 792.865 369.451C792.174 369.126 791.421 368.951 790.656 368.938C789.096 369.054 787.636 369.75 786.562 370.887C785.487 372.024 784.877 373.522 784.85 375.086H795.903Z" fill="black"/>
<path d="M803.854 382.958C805.881 384.176 808.197 384.829 810.562 384.85C814.389 384.85 816.625 382.83 816.625 379.906C816.625 377.198 815.077 375.65 811.165 374.143C806.434 372.467 803.51 370.015 803.51 365.929C803.51 361.413 807.25 358.058 812.885 358.058C815.106 357.983 817.31 358.472 819.292 359.478L818.26 362.53C816.569 361.621 814.677 361.148 812.756 361.154C808.801 361.154 807.296 363.518 807.296 365.498C807.296 368.206 809.057 369.541 813.059 371.088C817.962 372.983 820.455 375.345 820.455 379.603C820.455 384.075 817.143 387.946 810.307 387.946C807.723 387.978 805.175 387.341 802.909 386.098L803.856 382.958H803.854ZM849.489 391.773C845.751 390.792 842.053 389.674 838.395 388.418C837.835 388.179 837.239 388.033 836.631 387.987C829.752 387.728 823.86 382.656 823.86 373.324C823.86 364.037 829.536 358.058 837.363 358.058C845.233 358.058 850.352 364.165 850.352 372.721C850.352 380.161 846.912 384.933 842.096 386.611V386.783C844.976 387.515 848.116 388.203 850.567 388.632L849.489 391.773ZM846.394 372.896C846.394 367.091 843.385 361.111 837.234 361.111C830.912 361.111 827.816 366.958 827.86 373.24C827.816 379.388 831.215 384.935 837.062 384.935C843.032 384.937 846.384 379.518 846.384 372.896H846.394ZM855.197 358.542H858.94V384.387H871.323V387.526H855.197V358.542Z" fill="#336791"/>
</g>
<defs>
<clipPath id="clip0_602_31">
<rect width="1539.82" height="592.48" fill="white"/>
</clipPath>
</defs>
</svg>
